<svg xmlns="http://www.w3.org/2000/svg" viewBox="0 0 300 300">
  <!-- White background -->
  <rect width="300" height="300" fill="#ffffff"/>
  
  <!-- Gradient definition -->
  <defs>
    <linearGradient id="greenToBlue" x1="0%" y1="0%" x2="100%" y2="100%">
      <stop offset="0%" stop-color="#00c853" />
      <stop offset="100%" stop-color="#00b0ff" />
    </linearGradient>
  </defs>
  
  <!-- 3D Cube shape -->
  <g transform="translate(150, 150) scale(2.5)">
    <!-- Outer cube -->
    <path d="M21 16V8a2 2 0 0 0-1-1.73l-7-4a2 2 0 0 0-2 0l-7 4A2 2 0 0 0 3 8v8a2 2 0 0 0 1 1.73l7 4a2 2 0 0 0 2 0l7-4A2 2 0 0 0 21 16z" 
          fill="none" 
          stroke="url(#greenToBlue)" 
          stroke-width="2" 
          stroke-linecap="round" 
          stroke-linejoin="round"/>
    
    <!-- Top triangle -->
    <polyline points="7.5 4.21 12 6.81 16.5 4.21" 
              fill="none" 
              stroke="url(#greenToBlue)" 
              stroke-width="2" 
              stroke-linecap="round" 
              stroke-linejoin="round"/>
    
    <!-- Bottom left triangle -->
    <polyline points="7.5 19.79 7.5 14.6 3 12" 
              fill="none" 
              stroke="url(#greenToBlue)" 
              stroke-width="2" 
              stroke-linecap="round" 
              stroke-linejoin="round"/>
    
    <!-- Bottom right triangle -->
    <polyline points="21 12 16.5 14.6 16.5 19.79" 
              fill="none" 
              stroke="url(#greenToBlue)" 
              stroke-width="2" 
              stroke-linecap="round" 
              stroke-linejoin="round"/>
    
    <!-- Middle section -->
    <polyline points="3.27 6.96 12 12.01 20.73 6.96" 
              fill="none" 
              stroke="url(#greenToBlue)" 
              stroke-width="2" 
              stroke-linecap="round" 
              stroke-linejoin="round"/>
    
    <!-- Center line -->
    <line x1="12" y1="22.08" x2="12" y2="12" 
          stroke="url(#greenToBlue)" 
          stroke-width="2" 
          stroke-linecap="round" 
          stroke-linejoin="round"/>
  </g>
</svg>