<svg id="Layer_1" enable-background="new 0 0 96 96" viewBox="0 0 96 96" xmlns="http://www.w3.org/2000/svg">
  <defs>
    <linearGradient id="blueToPurple" x1="0%" y1="0%" x2="100%" y2="0%">
      <stop offset="0%" style="stop-color:#2563eb"/> <!-- blue-600 -->
      <stop offset="100%" style="stop-color:#9333ea"/> <!-- purple-600 -->
    </linearGradient>
  </defs>
  <g>
    <path d="m83.57 48c0 17.12-15.92 31-35.57 31h-37.89c-1.22 0-1.82-1.59-.94-2.49l8.1-8.34c1.07-1.1 1.17-2.87.28-4.15-3.25-4.67-5.12-10.15-5.12-16.02 0-17.12 15.92-31 35.57-31s35.57 13.88 35.57 31z" fill="url(#blueToPurple)"/>
  </g>
  <g>
    <path d="m21.6089 38.8203c-.1968 0-.3965-.0459-.5825-.1445-.6104-.3223-.8442-1.0781-.522-1.6895 2.0645-3.9102 5.248-7.3584 9.207-9.9697.5752-.3828 1.3516-.2217 1.7319.3545.3799.5762.2212 1.3516-.355 1.7314-3.6089 2.3818-6.5044 5.5107-8.373 9.0518-.2241.4238-.6577.666-1.1064.666z" fill="#ffffff"/>
  </g>
  <g fill="#ffffff">
    <path d="m57.6377 41.3633h-.1865v-2.916c0-2.5176-.9805-4.8896-2.7666-6.6865-1.791-1.7803-4.1631-2.7608-6.6802-2.7608-5.2139 0-9.4556 4.2383-9.4556 9.4473v2.916h-.1782c-2.4614 0-4.4644 1.999-4.4644 4.4561v16.7168c0 2.4609 2.0029 4.4639 4.4644 4.4639h19.2671c2.457 0 4.4561-2.0029 4.4561-4.4639v-16.7169c0-2.457-1.9991-4.456-4.4561-4.456zm-16.5889-2.916c0-3.8311 3.1201-6.9473 6.9556-6.9473 1.8521 0 3.5991.7227 4.9126 2.0283 1.3115 1.3193 2.0342 3.0664 2.0342 4.9189v2.916h-13.9024zm18.545 24.0888c0 1.083-.8779 1.9639-1.9561 1.9639h-19.2671c-1.083 0-1.9644-.8809-1.9644-1.9639v-16.7168c0-1.0781.8813-1.9561 1.9644-1.9561h1.4282 16.4023 1.4365c1.0781 0 1.9561.8779 1.9561 1.9561v16.7168z"/>
    <path d="m48 49.6084c-.6904 0-1.25.5596-1.25 1.25v6.6465c0 .6904.5596 1.25 1.25 1.25s1.25-.5596 1.25-1.25v-6.6465c0-.6904-.5596-1.25-1.25-1.25z"/>
  </g>
</svg>